<svg version="1.1" xmlns="http://www.w3.org/2000/svg" xmlns:xlink="http://www.w3.org/1999/xlink" width="800px" height="800px" viewBox="0,0,256,256"><g fill="#ff050e" fill-rule="nonzero" stroke="none" stroke-width="1" stroke-linecap="butt" stroke-linejoin="miter" stroke-miterlimit="10" stroke-dasharray="" stroke-dashoffset="0" font-family="none" font-weight="none" font-size="none" text-anchor="none" style="mix-blend-mode: normal"><g transform="translate(0.00134,0.0005) scale(4,4)"><path d="M41.245,11.293c-0.981,0.966 -1.961,1.934 -2.94,2.9c-0.862,0.852 0.475,2.172 1.336,1.32c0.981,-0.967 1.961,-1.934 2.939,-2.902c0.865,-0.851 -0.475,-2.171 -1.335,-1.318"></path><path d="M46.761,8.486l2.91,-2.873c0.862,-0.852 -0.475,-2.172 -1.337,-1.32l-2.911,2.873c-0.864,0.854 0.473,2.173 1.338,1.32"></path><path d="M48.334,15.514c0.862,0.852 2.199,-0.469 1.337,-1.32c-0.981,-0.967 -1.958,-1.935 -2.94,-2.9c-0.859,-0.853 -2.199,0.467 -1.337,1.318l2.94,2.902"></path><path d="M41.215,8.486c0.865,0.853 2.203,-0.467 1.34,-1.318c-0.971,-0.959 -1.941,-1.917 -2.914,-2.875c-0.861,-0.853 -2.198,0.469 -1.336,1.32l2.91,2.873"></path><path d="M44.934,16.904v-2.889c0,-1.204 -1.893,-1.204 -1.893,0v2.889c0,1.203 1.893,1.203 1.893,0"></path><path d="M44.934,5.751v-2.849c0,-1.203 -1.893,-1.203 -1.893,0v2.849c0,1.204 1.893,1.204 1.893,0"></path><path d="M48.174,10.837h2.905c1.221,0 1.221,-1.866 0,-1.866h-2.905c-1.219,0 -1.219,1.866 0,1.866"></path><path d="M32.832,18.229c-4.40576,-0.01006 -8.71526,1.2885 -12.382,3.731l-3.778,-3.731l-2.254,2.224c-2.295,-2.496 -4.403,-5.648 -3.122,-7.889c2.564,-4.49 16.702,-4.402 28.327,-1.748l0.429,-1.826c-12.392,-2.832 -27.261,-2.863 -30.411,2.654c-1.509,2.64 -0.353,6.049 3.431,10.138l-2.409,2.377l3.779,3.73c-2.46543,3.60019 -3.78291,7.86255 -3.779,12.226c0,12.085 9.926,21.885 22.169,21.885c12.246,0 22.168,-9.8 22.168,-21.886c0,-12.088 -9.922,-21.885 -22.168,-21.885"></path></g></g></svg>